<mxfile host="app.diagrams.net" modified="2024-02-06T08:11:18.288Z" agent="Mozilla/5.0 (X11; Ubuntu; Linux x86_64; rv:109.0) Gecko/20100101 Firefox/115.0" version="23.1.1" etag="DTuzW2ulCRrCVk7m1nR4" type="github">
  <diagram name="Page-1" id="nLVgdJWpVDw26P5rYIKy">
    <mxGraphModel>
      <root>
        <mxCell id="0" />
        <mxCell id="1" parent="0" />
      </root>
    </mxGraphModel>
  </diagram>
</mxfile>
